<svg xmlns="http://www.w3.org/2000/svg" viewBox="0 0 200 200">
  <circle cx="100" cy="100" r="100" fill="#CCFBF1"/>
  <circle cx="100" cy="90" r="45" fill="#FDDEB5"/>
  <ellipse cx="100" cy="160" rx="55" ry="40" fill="#fff"/>
  <circle cx="85" cy="82" r="4" fill="#1E293B"/>
  <circle cx="115" cy="82" r="4" fill="#1E293B"/>
  <path d="M92 98 Q100 106 108 98" stroke="#1E293B" stroke-width="2.5" fill="none" stroke-linecap="round"/>
  <path d="M55 80 Q55 28 100 24 Q145 28 145 80 L148 60 Q148 25 100 20 Q52 25 52 60Z" fill="#14B8A6"/>
  <ellipse cx="100" cy="60" rx="52" ry="40" fill="#14B8A6"/>
  <circle cx="100" cy="90" r="45" fill="#FDDEB5"/>
  <circle cx="85" cy="82" r="4" fill="#1E293B"/>
  <circle cx="115" cy="82" r="4" fill="#1E293B"/>
  <path d="M92 98 Q100 106 108 98" stroke="#1E293B" stroke-width="2.5" fill="none" stroke-linecap="round"/>
  <circle cx="86" cy="80" r="1.5" fill="#fff"/>
  <circle cx="116" cy="80" r="1.5" fill="#fff"/>
</svg>
